<mxfile host="app.diagrams.net" modified="2023-08-03T12:22:24.185Z" agent="Mozilla/5.0 (Windows NT 10.0; Win64; x64) AppleWebKit/537.36 (KHTML, like Gecko) Chrome/115.0.0.0 Safari/537.36" etag="NsC-HDaRM_fFd1wyZCm9" version="21.6.6" type="device">
  <diagram name="Page-1" id="lYSLjvih1uKZ9IGdwdS2">
    <mxGraphModel dx="1793" dy="948" grid="1" gridSize="10" guides="1" tooltips="1" connect="1" arrows="1" fold="1" page="1" pageScale="1" pageWidth="850" pageHeight="1100" math="0" shadow="0">
      <root>
        <mxCell id="0" />
        <mxCell id="1" parent="0" />
        <mxCell id="C0i8TwULWQA0BwCl0s4K-2" value="" style="rounded=0;whiteSpace=wrap;html=1;" parent="1" vertex="1">
          <mxGeometry x="30" y="200" width="140" height="220" as="geometry" />
        </mxCell>
        <mxCell id="C0i8TwULWQA0BwCl0s4K-3" value="Splash Screen" style="text;html=1;strokeColor=none;fillColor=none;align=center;verticalAlign=middle;whiteSpace=wrap;rounded=0;" parent="1" vertex="1">
          <mxGeometry x="70" y="150" width="60" height="30" as="geometry" />
        </mxCell>
        <mxCell id="C0i8TwULWQA0BwCl0s4K-4" value="" style="endArrow=classic;html=1;rounded=0;" parent="1" edge="1">
          <mxGeometry width="50" height="50" relative="1" as="geometry">
            <mxPoint x="210" y="260" as="sourcePoint" />
            <mxPoint x="330" y="260" as="targetPoint" />
          </mxGeometry>
        </mxCell>
        <mxCell id="C0i8TwULWQA0BwCl0s4K-5" value="Home Screen&amp;nbsp;" style="text;html=1;strokeColor=none;fillColor=none;align=center;verticalAlign=middle;whiteSpace=wrap;rounded=0;" parent="1" vertex="1">
          <mxGeometry x="400" y="160" width="60" height="30" as="geometry" />
        </mxCell>
        <mxCell id="C0i8TwULWQA0BwCl0s4K-6" value="" style="rounded=0;whiteSpace=wrap;html=1;" parent="1" vertex="1">
          <mxGeometry x="370" y="200" width="140" height="300" as="geometry" />
        </mxCell>
        <mxCell id="C0i8TwULWQA0BwCl0s4K-7" value="" style="rounded=0;whiteSpace=wrap;html=1;" parent="1" vertex="1">
          <mxGeometry x="370" y="200" width="90" height="300" as="geometry" />
        </mxCell>
        <mxCell id="C0i8TwULWQA0BwCl0s4K-8" value="Nav&lt;br&gt;bar" style="text;html=1;strokeColor=none;fillColor=none;align=center;verticalAlign=middle;whiteSpace=wrap;rounded=0;" parent="1" vertex="1">
          <mxGeometry x="310" y="210" width="60" height="30" as="geometry" />
        </mxCell>
        <mxCell id="C0i8TwULWQA0BwCl0s4K-9" value="Welcome!(This is our Home Page)&lt;br&gt;&lt;br&gt;About us!&amp;nbsp;&lt;br&gt;&lt;br&gt;Random Quote!&lt;br&gt;&lt;br&gt;Quotes List&lt;br&gt;&lt;br&gt;Add Joke&lt;br&gt;&lt;br&gt;View List of Jokes" style="text;html=1;strokeColor=none;fillColor=none;align=center;verticalAlign=middle;whiteSpace=wrap;rounded=0;" parent="1" vertex="1">
          <mxGeometry x="370" y="320" width="80" height="30" as="geometry" />
        </mxCell>
        <mxCell id="C0i8TwULWQA0BwCl0s4K-11" value="" style="rounded=0;whiteSpace=wrap;html=1;" parent="1" vertex="1">
          <mxGeometry x="280" y="700" width="160" height="240" as="geometry" />
        </mxCell>
        <mxCell id="C0i8TwULWQA0BwCl0s4K-12" value="About us!" style="text;html=1;strokeColor=none;fillColor=none;align=center;verticalAlign=middle;whiteSpace=wrap;rounded=0;" parent="1" vertex="1">
          <mxGeometry x="340" y="630" width="60" height="30" as="geometry" />
        </mxCell>
        <mxCell id="C0i8TwULWQA0BwCl0s4K-16" value="Random Quote" style="text;html=1;strokeColor=none;fillColor=none;align=center;verticalAlign=middle;whiteSpace=wrap;rounded=0;" parent="1" vertex="1">
          <mxGeometry x="610" y="630" width="60" height="30" as="geometry" />
        </mxCell>
        <mxCell id="C0i8TwULWQA0BwCl0s4K-17" value="" style="rounded=0;whiteSpace=wrap;html=1;" parent="1" vertex="1">
          <mxGeometry x="570" y="680" width="150" height="240" as="geometry" />
        </mxCell>
        <mxCell id="C0i8TwULWQA0BwCl0s4K-18" value="" style="endArrow=classic;html=1;rounded=0;" parent="1" edge="1">
          <mxGeometry width="50" height="50" relative="1" as="geometry">
            <mxPoint x="530" y="430" as="sourcePoint" />
            <mxPoint x="620" y="590" as="targetPoint" />
          </mxGeometry>
        </mxCell>
        <mxCell id="pEm7_C_hrB5tEDnLU3EK-1" value="" style="rounded=0;whiteSpace=wrap;html=1;" vertex="1" parent="1">
          <mxGeometry x="790" y="680" width="140" height="240" as="geometry" />
        </mxCell>
        <mxCell id="pEm7_C_hrB5tEDnLU3EK-2" value="Quote List" style="text;html=1;strokeColor=none;fillColor=none;align=center;verticalAlign=middle;whiteSpace=wrap;rounded=0;" vertex="1" parent="1">
          <mxGeometry x="840" y="630" width="60" height="30" as="geometry" />
        </mxCell>
        <mxCell id="pEm7_C_hrB5tEDnLU3EK-3" value="" style="endArrow=classic;html=1;rounded=0;" edge="1" parent="1">
          <mxGeometry width="50" height="50" relative="1" as="geometry">
            <mxPoint x="560" y="380" as="sourcePoint" />
            <mxPoint x="820" y="620" as="targetPoint" />
          </mxGeometry>
        </mxCell>
        <mxCell id="pEm7_C_hrB5tEDnLU3EK-4" value="" style="rounded=0;whiteSpace=wrap;html=1;" vertex="1" parent="1">
          <mxGeometry x="1010" y="680" width="140" height="240" as="geometry" />
        </mxCell>
        <mxCell id="pEm7_C_hrB5tEDnLU3EK-5" value="Add Joke" style="text;html=1;strokeColor=none;fillColor=none;align=center;verticalAlign=middle;whiteSpace=wrap;rounded=0;" vertex="1" parent="1">
          <mxGeometry x="1050" y="640" width="60" height="30" as="geometry" />
        </mxCell>
        <mxCell id="pEm7_C_hrB5tEDnLU3EK-6" value="" style="endArrow=classic;html=1;rounded=0;" edge="1" parent="1">
          <mxGeometry width="50" height="50" relative="1" as="geometry">
            <mxPoint x="570" y="320" as="sourcePoint" />
            <mxPoint x="1070" y="620" as="targetPoint" />
          </mxGeometry>
        </mxCell>
        <mxCell id="pEm7_C_hrB5tEDnLU3EK-7" value="" style="endArrow=classic;html=1;rounded=0;" edge="1" parent="1">
          <mxGeometry width="50" height="50" relative="1" as="geometry">
            <mxPoint x="590" y="240" as="sourcePoint" />
            <mxPoint x="1270" y="630" as="targetPoint" />
          </mxGeometry>
        </mxCell>
        <mxCell id="pEm7_C_hrB5tEDnLU3EK-8" value="" style="rounded=0;whiteSpace=wrap;html=1;" vertex="1" parent="1">
          <mxGeometry x="1215" y="680" width="135" height="240" as="geometry" />
        </mxCell>
        <mxCell id="pEm7_C_hrB5tEDnLU3EK-9" value="View List of Jokes" style="text;html=1;strokeColor=none;fillColor=none;align=center;verticalAlign=middle;whiteSpace=wrap;rounded=0;" vertex="1" parent="1">
          <mxGeometry x="1260" y="640" width="60" height="30" as="geometry" />
        </mxCell>
        <mxCell id="pEm7_C_hrB5tEDnLU3EK-10" value="If you click on a quote" style="text;html=1;strokeColor=none;fillColor=none;align=center;verticalAlign=middle;whiteSpace=wrap;rounded=0;" vertex="1" parent="1">
          <mxGeometry x="940" y="950" width="60" height="30" as="geometry" />
        </mxCell>
        <mxCell id="pEm7_C_hrB5tEDnLU3EK-11" value="" style="endArrow=classic;html=1;rounded=0;" edge="1" parent="1">
          <mxGeometry width="50" height="50" relative="1" as="geometry">
            <mxPoint x="840" y="950" as="sourcePoint" />
            <mxPoint x="920" y="1170" as="targetPoint" />
          </mxGeometry>
        </mxCell>
        <mxCell id="pEm7_C_hrB5tEDnLU3EK-12" value="" style="endArrow=classic;html=1;rounded=0;" edge="1" parent="1">
          <mxGeometry width="50" height="50" relative="1" as="geometry">
            <mxPoint x="1070" y="960" as="sourcePoint" />
            <mxPoint x="990" y="1160" as="targetPoint" />
          </mxGeometry>
        </mxCell>
        <mxCell id="pEm7_C_hrB5tEDnLU3EK-13" value="" style="rounded=0;whiteSpace=wrap;html=1;" vertex="1" parent="1">
          <mxGeometry x="890" y="1230" width="140" height="160" as="geometry" />
        </mxCell>
        <mxCell id="pEm7_C_hrB5tEDnLU3EK-14" value="Quote Detail Pop up(Gives Details of Pages)" style="text;html=1;strokeColor=none;fillColor=none;align=center;verticalAlign=middle;whiteSpace=wrap;rounded=0;" vertex="1" parent="1">
          <mxGeometry x="940" y="1180" width="60" height="30" as="geometry" />
        </mxCell>
        <mxCell id="pEm7_C_hrB5tEDnLU3EK-15" value="This will have a recycler view and a search bar" style="text;html=1;strokeColor=none;fillColor=none;align=center;verticalAlign=middle;whiteSpace=wrap;rounded=0;" vertex="1" parent="1">
          <mxGeometry x="830" y="760" width="60" height="30" as="geometry" />
        </mxCell>
        <mxCell id="pEm7_C_hrB5tEDnLU3EK-16" value="This will have a recycler view with a funny picture and the joke in each drawable" style="text;html=1;strokeColor=none;fillColor=none;align=center;verticalAlign=middle;whiteSpace=wrap;rounded=0;" vertex="1" parent="1">
          <mxGeometry x="1260" y="725" width="60" height="100" as="geometry" />
        </mxCell>
        <mxCell id="pEm7_C_hrB5tEDnLU3EK-17" value="Joke, with an option to add your name(the name is optional, and it&#39;ll get a random image from our db)" style="text;html=1;strokeColor=none;fillColor=none;align=center;verticalAlign=middle;whiteSpace=wrap;rounded=0;" vertex="1" parent="1">
          <mxGeometry x="1040" y="780" width="60" height="30" as="geometry" />
        </mxCell>
        <mxCell id="pEm7_C_hrB5tEDnLU3EK-18" style="edgeStyle=orthogonalEdgeStyle;rounded=0;orthogonalLoop=1;jettySize=auto;html=1;exitX=0.5;exitY=1;exitDx=0;exitDy=0;" edge="1" parent="1" source="C0i8TwULWQA0BwCl0s4K-9" target="C0i8TwULWQA0BwCl0s4K-9">
          <mxGeometry relative="1" as="geometry" />
        </mxCell>
        <mxCell id="pEm7_C_hrB5tEDnLU3EK-19" value="About us and have fun can go on the same page&lt;br&gt;&lt;br&gt;Also the about us needs to explain the joke system too, so make the text smaller&amp;nbsp;" style="text;html=1;strokeColor=none;fillColor=none;align=center;verticalAlign=middle;whiteSpace=wrap;rounded=0;" vertex="1" parent="1">
          <mxGeometry x="500" y="80" width="170" height="100" as="geometry" />
        </mxCell>
        <mxCell id="pEm7_C_hrB5tEDnLU3EK-21" value="The page with hello will be home the home page, and it needs this picture&amp;nbsp;" style="text;html=1;strokeColor=none;fillColor=none;align=center;verticalAlign=middle;whiteSpace=wrap;rounded=0;" vertex="1" parent="1">
          <mxGeometry x="700" y="10" width="150" height="70" as="geometry" />
        </mxCell>
        <mxCell id="pEm7_C_hrB5tEDnLU3EK-22" value="" style="shape=image;verticalLabelPosition=bottom;labelBackgroundColor=default;verticalAlign=top;aspect=fixed;imageAspect=0;image=data:image/png,iVBORw0KGgoAAAANSUhEUgAAAJ8AAABjCAYAAACFS9KCAAAgAElEQVR4Ae2dB3RU1fq3CaRSEkJ6mUkCiIAURVGxXVSuoHjtHUSwU1UUlGIv14L1KkpLo1iR3qv0EtITQktITybTS5LJzOT51t6TE0IMgnxe9O9N1nrXPmUmM7PPs39v2XvOtLEeHUGrtfbBn8FAmz/jRVtfsxV2wUArfK3K/6d5vlb4WuFrha/VFf/vueJW5WtVvlbla1W+VuX700ZBK3yt8LXC1+qGLxgDrTFfK2wXDLbm3u284Yv/8iMSZ39C4uyPWTT3c2mL532BsG8XfMn3iV/zU/Icli6cK23Z4vksX7KAld/Fs/qHeNb+lMyGZYulbVy+hE0rvmXzyu/YvvYnab+sW8qO9T+zc8Mydm9ayZ7Ny9m7ZQX7ti3n4I5VpOxczaFda6Sl7l5L+t71v7KsA5tQLCdlC80t99BWhInjeWnbOZzuNrEt7GjGjkY7lrmT41m7OJ69m2M5bsvP2cOJ7N2NJvYLcvdKE9vu/d0U5u2l6MhBacVHDyKs6NhBio+nNFrJsRSEiXPKtmiLGqzkRCrCSvObWxql+aesvCBdPk4+/vgh9/OPHqTwyAH5mgV5+ynI20d+7l75WY5m7eRY9i75OY+k/yI/t+iT7IObydy/kYx9G0jbs07aoV3ufj+wfS37tq5mz2ZxXVaye9OK8wL4vOFbNO9zFs/7D0sW/Ifv4r/ih6Sv+WnhHH5ePE/asiXzWfl9Aqu+T2TtTwtZt3RhA2iL2bxyCVtXf8/2tT+yY31TyARgK9m/fTUHd6xj//Y1sk3dtYG03RtI3yM6YyNZBzaTfXAL2QKoBoAUYPIaABIgHcncwbGsXdIENM3thIDl8L4GWPaSn7efoqMHyM/dzYncvZzM20dB3iGKJDCpFOWlUnrsEMUCEgHPEbEtQEqh5HgKpScOIS5+WUEq5QUZ0ioKsqgoyKa8IJOyExmU52dQLtqCTCpOZlFZlElFUSaVJxusMJvKk27TFGZTVZyLtuQwmpJcaVUlhxGmLclDV3oEXaloT5m+zH1MtOJ54vnCNEU5VBZmy9cUr61YyfFUio8dojDvACfzDlCQ6wZTDKpjAswsN5iHU7eRk+IezBl7N8rrIa7LwV/WcmD7mgsL3/dJs/kh+Wt+WjSHpYvnsvy7Baz8IYFVPyay+qck1v68kPXL3cqmqNov6wRsP0nbtfFnqWb7tgrYlnPgl+WnlGzPBtL2biRj/2ayDm4l5+A2clO2k5e6gyNpOzmWsZvjmXukAh3PdauPVJrDe8k/vFeObDm6xQjP28fJI/spPHqAk02ssEF5hJKUF6Zy8tg+KsvymDXrNYK6BODl4YFnG3969QjkqX+FMePRaF4bE8sTt8YQ7eWBXxsv/Dt14rZhQ8g/lo6m7BgVRblUFuehKcpAUyQuvNg+LK2yWACUR5W0I1SVHEFXfgwBiTBD+VEM5cfcxypPYGhiRk0++gbTafLRVZ7AWOE2U2U+ioljyrbSKo9TWn3ZMbQlAswjDe/PDaUcHPkZlOVnUHI8jaKjhySM+Yf3kZ+zV6q74gncIG4ha/8WKQipu9ZfWPiEsq34Lp6V38ez6odE1i5NYsPyRWxcsYQNwo2u/Jata35oVLedG35m96Zlbte5dSUHtq/i4M41pOxcQ+qetaTtXU/m/g1kHdxIdspWclO3kyvcX8ZOjqSLEbibE6ITcvZScHi/e4QqoB3ZLwETrqypFZ84RMmJQ42uqqwgDbdlUHEyg7LCDDQlR5n13psEeLbhzZFqMhf1pfD7SE4sCCQ3oSer5o6ntqKc/d8MpPA7f3TbbofKLzClvsW+pXfx2ZQ7ydz5I7f0CqGzRxvef+9NLJqj6MpOYCjPx1BxHGNFPnoBhqYAU2UBRmn5GCtPmVlTgLWqEJO2wapOYqkqxKIpxKopxKIrxqwtxFpVJI/V6EtwWym1+lJqdCXutsl2tbaYan0JNn0xZl0RZs1JaeL9iNc2lB+XwGtL86gsOUxlUQ4VJ4U6ZlOWn0lpfgbFx1IpPHKQk8JdH97HceGiM3eSJ130L+Qe2kbWwS0XFr41PybJuE1xp5tWLGbLqm/Zuvo7hMLt3LD0NNj2b1tFyo61iFGSvneDjCcyD24iK2UzOalbyU3b5naT4sM1xCEFebs5eWQPQqWECeUSbdN4ScClmBIPKZCVn0ynojCj0d1UFGUjrLIoncqiVKa88AKd2rbhg9Fd+eSBNqx/S0XJT2oqNvemLvd+KHiGmpJJHE2dib3GxJx37qTgp2h0S7yoOfksDusW6uxZ1JZ9w6uvDAddOkf3jGHEP4PoGdcNjeYoVn0RFl2hbMW2TVeEVVuIpepkw3YRNm0xtqoiCZbNUIwwi6GYGlMpNQ0w2QRshjL3vr6UOmM5dkPZGU05X2sqRVi1qRSbsUT+b/E+hJm1AvCTGCtPSDWtKnerolDsyqLDVBS6YSyTcaS7n4UHEV7lRO4e6WVEvChCnObJxLnsn3fMJ5IF4U63rnarm9ul/sjuzUvZu3UZ+7auYP92EaCKpGAtqXvWu+M1EauJID91K4fTtpGX8YuE7XiOiLPcH0h8OKlgxwVoByg+3nKwLSATcAnIhIlOqiwUcVT2qVbCloum2O0ShburLE4nwMeTOdMuQfejL1WL/dAsC6K+9FnqKqay4KMbsBybSU3pZOwlL1JT+jzWsn/jcOj5ctY9VGy5AuuyQBxFd1FbMYN6RxZmXQL6ok+x2I7hqD2AWT+Nz996iBsGXorVWIpNX4hNV45NW0q1rliqUbVRqFWJW7V0pdQaytxmLKPWWIZdWjl2AVqDCajOx8T/qzGUupVQvL4cBEVYdUWYqgoQrl24eqHQ+vJjMiwQIYIIGyoKM2U/i/4tPn6IwmMpnDxyCkKRgJ0LbM0fc97wCeiUjHTXxuXs3SpsmcxERTYqMiSRLQllEwqnqJsCmxgxIj5TYjQxoqSqHU9pdJUKXCIwb24iRhEBtAikm5oIspUAXImnRJwjreI4urLj+Hi3Z89Xl6L5oS21e2+ktuhRjFsuovJ7bwzbelNf8hJOzdt8OCUWe+U0aitfwqGZSvGxl6h3lDHvi/so2dkT29JA6sufxVk1BYd9KzXmn3EY3qLOVka9/Ti1hjcwa2fSs0d7jGUa7OYTp5TKVIbdVHZeIJ0PfE2fI1y0sGqdWwkFfEIBRStjS6GECoAybs1t9B5KbCjjQuGRGpSwOVjnsn/e8Engtqxi/7bVMuMRZY/U3WtkuaOxvHFoi1vh0rdLdRPutKm6iTfeNCarEFlYvojHstBI9RJgiVgk122FInPLk6YEzKLVlR1FW3YUvYCriYkRLEzENiIAN1QeIyigI4d/uIGqpT7Yj96BrWIKNWXPUVs5FYfmZSyH76XyZz/q8x+iVj+DN8cHYdO8gqPieZwVU8jeOxKXXUt+xvsUb4ylalUn7PrJOMtfwWHZht36HbW6GWgrD+Osy+Pzd3phMUzi4P5pzJg0nXpTJTXGSjd0pvNTsaYgne+2cNkKgCKOFG7YrYAFmCoKMJSfQCeSE9G3JUfciVPxYcqLcikryKIkP1PGgyIxEdfxXGBr/pjzhi9lx3oO7RQlEOFON8h6mlJHE9mQqBmJ2piATQSq+SJJyDsg03rhRktPpFOWL2KyLBmHlQt3WZwjTSiZu0yQJxVLdkDZUXSlR+W+6BQBmmJNM0PpOhoyQxHEmzSnssHFcxPYMecqtD+2xbwpDlfZPdjLXsQmlK3yZRyV03BoXqLO8AKmvddQk3obNsMM3n/5Ghzambj0M3BVTef9t7vjtJVTW/EuZes640y/Fbt2CnbDVFz2o9gM/6HO9AZ2qx6neS0u7Zu4TDOo08/i6l7dqTMV/CmK1xxUJVGRMacSa2oKMVeexFiej77suDv7bogFRbZergB4sqF8JJKSE4cuLHzpe7eQuV9kOlvJObRNBp0yURCF2JzdsogpShxiZBQfT5Mmsqem7lPCJupXpYfRlB1uLDcI2HQVx2QQrG8IhkV5wVDhLkEIFRNgNTXhNkQAbdWJzLAQiwiqRVyjK8KiF7HMMZLfvJS3h/uSPq8fB7/sxju3eXP8xz5Up/wDZ9V0XJpp1OlfoV77Ck7dDGpPPkZN2jCsuneZOWUwdu006nXTseuns+Lbezl+eBOOyvFoVvhB+ZM4tFOo170FrqPU6GZiKX4fV62NbWsex26YTp1+OjrN20wYeZ9MAmr12r8MhBJEfQkiQxZZtzJw5WAWsWDlCamCAkBNQ0JSWphNuciMC9IuLHyiuHtYzAJkimLkHo5n7yU/113yENCJ6r2ovJflZ0mZLi8UqnZYmnjzQsqlmxQfrEGpTJUN7rFJXctQVYBiCmwiW5QBs4BLZJANo7alVrqTygquCPXk3TsDsC73xbqiE7YVnbGsCsC8Joyv7g+kZFVv6goewKGdTL1uBvW6aTgMAqbnsZc9jsOcyNL4sTiqXpeAukxvoy37iK8/HYIt+xY066JwaZ+nvupVakxvQe0+HLqX0Zd8jLPOzLrld+EwvECt6RWq9R+xZc331OqL/xLwNc2aBYQ2bRHV+mIZB5pF/yvXo8HbiDBHhD/CBUsrzLqw8B0R8Vu2UDhRAzpE4ZEUqXKiSOlOBkTxUlTWD8uRItRMpvIVx2VWpRREFaDEhxTK1dSM2pOYdIWNJkCSsBlLsDaUI2yijGAsaTRRnqg1njKr9iRjRz3ERyO7ULb2Cj54WMXMe1Skfns12o0R2FZ0oGq5J4ZlMXw9ogtFq9RQPgk0r+LUTwH9S9Rpp1CrewVqN7Fm+bPUaYVrfgn9yRnUVn7EyoW3YtzeF0vaYOoM03HoX6bO8A5O3fvU6qaxbe0z1FdXUZH/KnWGF6mumk5V6cfUVJZj15djN5XK5EMkIH+WNXXJAkbRp2Iwi/4X10SEL43FbhFXi4Sk9FShunk8dy775x3zFYlppiOHKDkuquJZCGUrLchqzECFsslkQAT9DcApI0gUWwV0jbWuBqgUuCRghmKsArImpkAmgJM1sIZWwNbyRROjuIS1CaOYcVcwxWu6o1vRAePKDuhW9GDrx324tH0btn5+GcZlXlhWerHrvYsoX9UX+/4bQPsCddpXcWmnSnPoJ1Nfk87OjdOwlb+A3TCNrz8chE0znbwDY9Dv6guacdItO3VTcOqmQtUr1Bum8vGsm6CmCn3pB9QbZmA3Ps+S+BHYKgux68qk0tSZy7mQ1rTPToNPlGVEXdBUKvtf1h2bZMPCFQv4xPV1J4C5F1b5Sk9kIkxAJ6S3oiRPmpIUKMAJl2psUDWLLK4WyjhMfKBGmBoAU/YFcKIoWiM6oaEjRGeI82cGrQXV0JYS0NabE8uvRLPCG2vK1VjShmJNuxZLylWUbYnBtrojpav60a1LWzZ+0RvTyvaY14Xz+tB26NfF4SoYiUs7Xbpgp34qNSKpqD7G9vXvUaOfjN0yg+kTo6ipeo2S9AmU7+gLFRNw6l7BpX0Fl24KLqGE+ql8+O4g6l357No0HYf2Nap1U9i7+U1y9+7BbizFIbLfCwxgS6+nQCmugdXcAKEQg4bCtBAO4blEHF7VkA2fi9I1f8x5K5/iUqX0ignuhsRASQZE2m7WFSJcp2glbLpimd7XGNxusql6KXApx6TrbCi6KlCKc0rHnEtbUnCc/BU3Y13pQ3X69bisb+LUf4C5bCYZO0ZyPHUCDs10XCWj0GzqQPmqS4ht50H+z1diW9WBEwsvZfN7ceh+uRw0M6jVvgpV06k1vIzLnsbcz8ZQa5gqIZw8Jhxr+RuczHkBZ8UT1FW9JAEU6qcooNM4nZRdT1Jr2s3mNW9hM35ErXkalqpPGfGvgTiMGumC68wlfw0IzacUUAlvpFeSU3Wnx4LNwTqX/fOGT0iuqJ+dpnAi21TisgZlE1M6jfA0xGLnAs4f8ZiIoBDKl3Wgcnk7tHvvxlr+JnX6mdTpXsWhnymLx7Xa6biMH/PGa2GYjz9I1bL2bPtyIP3DPKleE4tlbQDzx4djXX8ZdTl3SBfqMI6n2vgiTmcKr06+nXrTW9RUzCTxs2uo037E3Pcvw6V/FbtUTHcG7TBMw6F7BadhJjWVr/PGlDjqLBtYseRprJVvU2d5g0O7Z/Dh9OdwWMqps1bgsFT8qRCKa6DEz3ZzmdsNm0vl1J+Mx+VctTsWPBfYmj/mvOFTFE7AJksbIuNsHouZy6g1/9odKlL/RwD2W/8j1LsNtlUBJI72kjMRImkQCUB11SvYda9Sq3kHh/497Jp3qTPOwGF8A232A9zU2YNdE4K43N+DxW9fgWWtN7Y1UXx4my/5a66jNn8YrqrnZBJiNs9j09r5Ur3s+inUat5g0Rc3k759DLaKN6nTvo7DMBWHfhou/TQceqGgU3FWvUad9l2WLx6CvuRTNiy/jb2rb2PH4tt49cmr2bJhKU5r5Z8Kn3KdlFbMEQvv0xgLijKWKHGJRRHnsSj3vOFTJssbJ8Ab4rOmaXvTIPZCbssRa6hE5d+WhFFe2FZ2gIoncFimkLNnAt/PvQ2r7ktqdD/iMG/BblzJup+fZ9Xy+xgW5UPq2M4cmuBNxnMe6JIu55oIb6beEUzZim6YV4Wx7pVu/DAjhspDt1BfPhmr5WXqnTtYPPc1yk/Mwml8Ge2xd9jw3b3s3/wo21YMp173Ng7tDFy6aTJREdmySEpcVa+A7mUcRc9xdN0QxtzcjROZB2V4oVz0v0qrKKESGolrr2TDFxQ+4UpFHKfEYWJSvK7ZKosLCVzT12qEz9cL3fI4rMs9qa94ih+/uYc6/TSslrUczf2F75LHUnr8PYqOvcP3CSO59/ob2PuCFynj25I6wYeCdztiTYzCsSAS47e9eGNEHN282/DVC93Qrr+I0rVq5j0bztfjulBy4HYclS9i134B1q18/dV97N7wNE7dR/w4ZwhrFw7BcGw6y2ffzPefxbL3p6H88NFQPhx7MZMeHETF4RTsVrH6pJAaU/FfSvGawi/6VuyLViYkykqZC6l81WKFhKH01ER5E/CagvBnbTtMFYS0b4dBZK8r2lFf+hJO7YdY9YtYnDCaWsN0bKapctahTv8GTsOHbJ/Qg4zxfqSO8yFtYlusc9VYEiIwJXbBHB9D1Tdx3DPQmxXfv4JRs5En7r2ay8Pa8c2UKziydjBFq69l1b/7MuuRDsQ/35bKtVHoVkRgWKmm4IdLuMjXk+GXBnPo3RvQxA/g47EDycuaTp3VfUGVi9r0Yv+VtkWfNrXT3PCFhE8pgzR1s2L7z4KtpdcN9vPCtLIDppVeTHmwCybjDF6bfAO1uinUGabhNLwkldBufJkvX7udtGcDSJ/gTep4Xwlf9QIVtqRIqhOCMS7qw5MPXoezfhl1zo3U29dQX7cG6tbjrF2Hw7GeGv1ushPvZd3rlzHvqd68f18MP0y+jIOfXcuxeTeiXdIH26JozAnR6JK6s+7DwWiKv8FuKf3LxXctQd8UPLHd1A1fULfbHLq/GngCxisu6Yn55/YYl3Ui6a1bMFV9i6XqFer0U3DqZ1BnXQX1+eAo5brwzmSN9yFjvCdpY71IH+eFdUEk5qRgiuf3o6Z0OXbnRpw1a9AWreSlp65h/IN9+eTVR0nbuwCXcxtO5xaqkgahTw7HnBiBNSkcU3I4tUmhGBJUGJKisSSFYUoIp3JROEd+vo6DOz/HYfu/CZ+i1CL0aoWv2ULLN996De1yP/TLIsnfMZh9G0fL1SdiCgxnFtXGOTirZlCjmcm0oVFkTPSV8GVICL2wxgtQVBiLNmGv3cq+tTPZ9el16OZ1wzA/ClOiCuvCrmgTVFQl92fWMzFYkntRlejHF88M5JMnAxlzvSfz338Ii341tbatXHOJP/okNaXJ3clZNBC7eRGOv0BZpSWla36sufI1Pf+nwNeSu/uzjjXvnOKS4+hXhFDwUxzFq7rjqprhLndYv8Vu/FSu07OUv8XBLaP5cbSI93zIHOdFxlhfUid4YFkQSemC7lTbtjHmHx0o+rYv1Tvupj51IubMpzCnPY8lawrWzBfh0JPUrBtMzYIITAsi0eR9h8u5BrtduOm11Dm2Ue/ajL12I/qypZQnDKL8567YjQk4rEV/2QSjKWDN+7fp/gWH78+CrPnrNu2EpttWcyHFP13Ch/eHMvtpL1yal3AZX6Xe/hM1la9wdP9EOcNQa3qPzeN6kjHWW7pbAZ9IOGzxwXz3QhCPDY3EvOWf1GS+iC1nEpu/Gcm8+7qya0Ik+54LY/4DoSROHYY1bxrmn67DsiCMewepub+PP5/cHsbGsXFse0HNxokq3rwzgp+T32Xa05eTv7YH8/9zE3Wm8j+9oNwUsjNtN+3b5tsXFL7mAPxZ+807oel+namYDf+5hhn/9Cf/p744dc/jMLxKjfENvvv6WmoM71Jfd5T6mjJ2Tgonc7y3NAFfxri2mBIjWP/l8xg3jKAuazLVmZMp2zmNlLER7JoUwZf3R/D20DB+Ht2DfeOieObKABz7R2GMj+WxuHakjItg5SPBzL7Bh1nXePDZ1W359GYfDn7xLx65LpQN8x5j34633RmkrRK7pfwvbUrRu2kfK9v/c/ApH/xMba2lgPuuDWDvnGGUrQ6k3vAKLsNUbOVvY616A+z7WbzkGczGb9jznH8jfJnjBHwemOO78fUjKurTnqA28znWfdifd+7uzsQrQ7DXWfBv70fyrBmsmj+HzSuWcHuMD/vn307V1/8g5fVB7JysJmO8L9ljPckc78W+CWqevTYQc+qzJDwZS9WmGKr1qTgsBThslX95+5+GT0AmFPZMsDU/XmeqJNDLg89HdUazOgC7brJcT7c84RaqzR+wf0sSNsMrVBx9h9TxTeBrUEBbQjim+C7Upz7B8vd7kTwhnE8f7MnyiVeyf2I4B8Z3IG2iD7lP+7BrQhcWvf0MR765kcr/dEX3WQT/uqwrHz08iLu7BXFtWGfefKIv5uzPSf+yN589GIFuYxc2//weTlvRXx48MTj+5+FrDthv7Tst5YR4t+PYt90xruyMy/CiXN40573eWE0rKTj6MTXa11mW+Dip4zqfUr4G+KqTIiV8xqUDqMt5idqMlzm65lFOrJ7FiL6d+GhINBMHBHFFZ1+ev30AD/fyojI5htJZPdF/2IUX+7Rn8kAvCuZeyeejQ1nwdAylCy/DHB/Ml4+EUbWmC8lz7sFhLWyF7/f4bVFgPJOdKWA92/HmIJ3p8SI2EiNRac/ksuyWIj557ibMK6NlsVnEfPXameiOT8dVcxCT/jW50GD4FZFkTvKW2a4ss4jEY6wX1sRoLAlhmOLVVCwbjS3nJWoyXsKWNo3anHcwHPqIybfHcfCTS/lp/MVo50dSmXgRpbN6YPggnJIPu6NJ7MHWl9Roky9CnxSMOTEUU0IY8Y+rMa4OpLzgfZzW4v8T8J2pn8Xx38OO8tjzXlhwJvDE8TNBc7bj5wrfb3VC03O1lhJ+fP9azMv9MK3uQH3ZKGqrZlJteI2Mg7OpEYtDtdO476JOMiZz1/d8SB8nZjkU+CIxJYVgTArFlHQxFXMHUD5nANqFV6FL7okpMZiqeddQtrAHxgWhlMX3puqDSEwfBmP4KJJ3B4vnBVI1PwpjYoiETxSgl73YD+Oa9tg103BaSlrhU4g8l/ZM8J0NsJbON4dO2W/+WAHW2dSuKXx2axlXdvHAtMoHyxo/qrOuo/zYK9gss9ixeQp1uunUmt5k3bjesswiSi3ucos3hyZ4YoqPxLrAPVthTozEnCi2w6VymRJC5OyHNTkG28Ir3FAlBJP/TT/M/47E9EEYhg/D2TjpYoyJKszxYQ3PD5XtzrcvZ+UbF2M5MYzZn06T8VTT937WbWWe9S+SqJwLM80f84crX3NgzmVfga152/y5Z70gzS6E06rh2ot7ol/VBetqX8o2BDD/4344q9dg1b5LtX4ys9+7n72Tukilaw6fOSEKW3zEadAoAAr3aUzoglEsOkgKlOpmTu7CrncGYHg/BPMHwRg+DEb/qYqjswdjindDJ55nTgxj5/v9OfjWxRT8ci/ffDKzFb7mZP7W/h+hfGeDTYHv90LX+HiruEVFKZWrY7Gu9UOz9mKc+tf5If5J7Pqp2LSTeLRfAAfHeZE2zq16p5TPC0tClFzVcgo4t/I135cqmBiIflE3jn5+NR9c7YXu41D0HwVj+CCEMdHeWOKjJMRGMd+bGERh/JVULezGBy8OwWGtOucMvnmf/e79ZgO0sa/+P4//FitnOvenKl/zjlNga96edwdZNfIbY1vmXIFxpS973orEUToTi+ZFqrUzGRjlQ+bETmSM9eGQnFZr6nbd8JkWKO7y1+BZkiIwJYVjFO44IZL8uZeh+ag7hlnB6D8Mc8M3K4CcT25A+/2l6BeKueBYyuf2p3LhFRz58p9cGuqL3VLYCt+ZCG3p+O9VvuagNd1vDpuyf97QNYxiUZcSy/h7BHizaWp7qn7uR8mmgVi0MxjYpS3bno8lbWJAY4mlqdsVq1pEYiBcpIDMrXYiYQijKvkiMt4eQHFCTzbMHMA9EW2ZOqgDXz/Wn/JZsWx8oTuVH3bD+JEvVZ/H8dLAQAqTurHvvauY+3AcRYmxpM8ewusP9sJRVSjX8/3/ftbf/XwlZmzS1ont81TAlhg527ELpnxNYWu+rcAmWqWQKdrz7QjleXUNCcrCr79i5av+aNcGYljVnvuuCSBlnBd7J3Zm13NdzwyfhM4dqwkAyxdexLtX+XJ84e08378jZT8MwLioK5akUKpFDJjUldmjVOwc15kRKk+GhPqy+NG+PHOpD9aEIKzxImnpxtO9vHn1Bn/eHHs3NpPIdN2lI+V9X5C2CXTK9fifgq8pdGJbdPrvyWbPdpEEfOIbYA5rJak/9MO8tiOGVT1YO6EHhyYF89XQWA6MV5+W6Ur1G+9Nuii1JKgxJ4RjSA5Ht6gfuV8P5vUru1CWNBDjoj4vSHcAACAASURBVCAW3B1CyhcDqE0KwZoYjiFRhT45CGNyEGVfhKD7NJTCef355rEYjIkxGOODGup8fdj+xqVYtRVUm8v+vwfZ2frhN8+3AKECo8N87kp4NpVr6fyfqnxN4RNK90eCJzpcwidcryWff3TzxrzKm8cv82PfBF92TQjl4KQOpE3waRG+jPFemBaoJHyizDJrWBdOzu2JZlEf6Y5NiaFoEmOps5t5+PIOZM8bRPHiKyhZdDmFSZeT8fWN3H+1H75t26FNUGNKCsOY0BlLYhDmJH+yv7wcbcEx7Ofp5n4TqN/zP/+vwtcUHrHdvMAsR04LH85lqpQBttMqvlpZidPinjf8wzq0eedbi/jPu1MwLw/knUe6seDhrqQ/3YE517chfZwfe54JImOcXyOEyuoWw2yVu6aXFMTn/wri4Ce9MSXGNMR/ItEII9bPF1t1Lbic1DvrqK+vob6+Fofdjk6vwd+jE/okd0nGJIrMQknjozgx53L2blmO01pOvbUCl6W80cR+U/utc+f7XPE/xfTjb/a58BotXD/hSZo/ryVlO9ux81a+5uCdab/5mxfL7dN2b8JQfIxruoYxclAPTmTsx2XTyJmRPyLWa94xWMqw68soXd6bivVXUbCiH6/2D2L+Qyqu7OTF/kkdyBp/qtSiwFf0vlCpYKxJQVQs7EvqrMsxC1ecGI5F1OuSQsmecz0uezX1Dgf1Lgf1TnA6nNTXu3A6avFt15Y3r4+iIqkf5sRgLGIJfWIvKhO7MXPCkxI+AUJT2C7Utnjd5n112r5wu/8X4WvxTYtvwBtO8tXo6zAkqTjyzWCeutiLgqSbWDltAB++OoE6a4277mU793jjtA5rrnoN+wLqlMQRaNZ0wbbeB9PaLhjWhpC/+hr2jI9EuFllek2BL/V5D6qTRMIRgjk5jPLEvhgSoxuVT2bASRH88p+rqCzIw+ly4XDV4KirI/2XzSx+uTeGRWpsc0LZ93YcloRQWTdMfasHmgWhjLzlujOq3YUAUFFUoYDOas2ZQTyDAjYVirOpXEvn/2vK1zJ8FZh0J+jR2Ztb2rdj0xQ12jnRaBN68OxAH7LnDyT9qxtY+MmL2G1amfk2/YDnAtkZH2Op4IErgzCt7ET1al+sa/yxbBArSzox44YYDo1r/yv4ssd5YUvsiqj16RcEU5kUTuG8a2QCIhaaussvYZgTQjEs6kJVUh9K4i+lMrErtvhIqpO6YEiK4GT8TegTe2KMF4sKRLkmHGtiKPdde7mE70KAdqbXwFaJsPOCr8lAbwmusx27oPA5jRXUWDTcqPZBN787luRo5oyM44dnoqj+Wo1pyaVc2rEtVYt6MnN4CDXakzisp7JBAeL5wVhOrbmc1x++CMsqP/ftL9b5kfafQIzr/Li7bwdSxrdvLLkoypf1rC+F7wZhig/DGB+CPjGIpIeDsSwU6qfAd3rxWakJGpIiMSd3Imf2lVQuvkrWB92wuh9fkxjBE/cMb1S+RhWq1kgQBAz/TWvu6sW+iD9bHLwNyucU8bnZHa83F5ezgdbS+QsKX51Zg8NajMVUTt+O7Uh5sQPVCZFov+3J2Iv9KPi6O9XxIXw1qgep31xF4byr+eHzNxovgrh5jrhNR4sd1GQUNj1fb9fhsGowFu2kal0U5lUdsa31xbC8C5ZV3TCuaUvOd/34ZUKPX8En3HDa+DbUzFdJ+IwJgRgSYznx+QCMCWee+XC741BqkkIpnSPW78We7qpFzJgUwdLFC/5U+BQAXQ0JT52ppLGvTwNfDPoG8JT2/x58DV+USd2xjpSX1ex4/Sr+/a8gNB+rsSaGUTj7CpY8KRSlO6XxA/h50uWUL4zlvmsuRiyJvzaqPYte7o+rpuo3C7NO8VVEawkuS4W8W+rOn+7GsDIU61ovTOs9sK2N4WRCGJZ1ftjW+rHnoy7cH+NFzjgPUsU32BoWkyrt4emeWBIjpAKaEsMxLohFZq4Nq1yaKtpZt5PdU3IVi67FadW1fLH/INUT/SQgEoNRgclVU4yzuhSXuYK7r+7BurduY3Q/NbPH9yNj7gBevP9SnNWnHi+f1wJ8zRWwJWU727ELq3wN8NWbixnQ2YsT73RGtziYp3p4kTI1EH1yKObkPjzXswP6hVFUfTuQz+6+COPCaIbF+DD6ygCMi2PJ3Lf1N+ETP7rispuZ9tJLeHl64eURyJtP9SJldhiVSyMwrQmmZm1nzMs7s/01H/RrfXnnkQDSxnX4FXgCQFELNHwRiXluSLPVKae73LOBJxaRCnhNSRE8fXlH6mwCjopGMBRA/qjWPUhPB0nc8PvlB8Io/P5mxl3kScWSgRgTL+LonMvYPWswB9ctx2kuO/09iVJYM+VT9hUFPBtoLZ3/w+FT3kyLrYgdGr4LUG8z8PQVgRjeD5KrR1Y835ftL4RTFx+JPl7NI13bYVoYTemCWN79VxTaJBX3xrRDF6/miesDqBP/S/l/5jJcNZVYLScZNvRmfDyD6ODXk7DQawkPG0Jo6DAiwoYR3aUn7z0bwc6POrHlLU8qV8WhXdsW8xpvdKsimT/qSkSSoSie0maIMswEL6q/Ebe6EOv5QhsWhp47fCLx+M9QX6wJYRS84YvaNxA/HzVTpryA016Gs6ZEKrrLJmA8HZjfA6P7+RXU1ZTxzA0RPH1NEHZrFTU1ZTx9/41UfH8Vzw5oR9VCUQjvxRD/duz9ciCViZFS3Z8a0t1dg/0t9W0BxpbgOtuxPwU+l0UUKcUtIkwsfqoPli/jqEmKJuvjgayZIOKjKKqSg3k8ygtdYgd0S/qR9slgjIuieCLWG01CJPGzPsJZfRJXbRVLliTj4RFEUJcriYoYSmTYLYSH3EZI6FDZhobeSnjIrYSH3YQ68g46+PQgytufR64P5IdPL2HtV/1Z83Ffojt4kTb2125XgTBtnCf6L6KxxIfL+t/ZlK75+Xdu8iftjVg2v9ATtfqfxMaMpnvso4R2/gfBQREUFmTjqnEH/r8HuKaPVeCrrjrOkQ97M+22IFn8f3FoGFtnXEL+3MGULLiSO0I9qUzoiyE5EmNCCHmzB/LAAF+qDSIuPwv8fzX4GoP8JkXJurPMDdbZStmwZhn7JsRimReJNakzhz7rwy+vXExNYhy67yKZOciX6iWRGBf15K3rvDAl92TJkz1Jn30N7X39iQwYSFTkzUSE3UJo2FBCw4ZJpRNq19zCQ24nLOx6gsNuIixsuAQyNGQIkcHDCAu8mfvvH8XnD/ck5xlvMsf9GsKMcR1JG+9J1uR2WBao3Ov9RNabHCHne62JnWVcKArJzcHTJ4Zys8qLTaN6cYV/O7x8ehIbOxp11Chp3VVP0i32Ttq17Uze4QPYq8sblVCUSZoC9pvbNVXUVesZcUkHTPMj+OdFPqTOv4E3rvRFt+giJg8K4Nj8IRi+D0WbPIibAjxI/fRmtIviKP6uF+8+Pw3HuYYCTVzx2VSupfN/mPK1BN/ZJqZF2cVurqJveBBpL/pQO1csTQ/lu2d7ULnoWrmE3ZTUg6L5vZlzT2jD0qYulMwbREXSpdyo9iA04moJXUTI0F/B9iv4QofRxiNGPj5cqKJ0x7cSFnarPObXLop/XHkph54LJPtZ9xfIFdXLHOdN9qROTO7tw77xQWSN9yVL3MfvuTYUTPXjhf5+aBf0wLQgVFpT+ER9r/STLrx7SxgHJgcSHXEDKvWjePv1aIRPQBgT/Rhq9QjCw6+lnacvDrsRV3UVrmp3Efg3oWtwk/aaCh4f9g+OvBtA4RfXczJpEC/09UWzuDd3+HtQmRSAdkkvrvP1wPBtHwzxAZgTwjiy+CY2rFgjQxmxAvxcXkuJ+0TbElxnO/Zfhe9syqdMqttNJt4YehElbwRQGx+FNTmEid295bxqxZIYVj3bHdtC9ze/xDL0mkWR3BXRDl1yOF29w1BAag5b8/2wkFsIDhlIZMhwIoJvk7AK8CJChxMaehthQdeQm5PBjeqO5IzzI3vc6QqYIRacjvdm/dOxDO7Qhm/u68mBiTGkjQ8k/YWODOnUlpRJHTB/psYSH0N1YgzaebHkTPbgge4dyJoQwiUd2qBWPUpM9BiCQm4kRv2g3FYUUAAYqxpNj5gxRAVfSf++A3BUl+KsbpYENIvJ5LKsag3Lli5jx0tdWTetJ7qkvsy/X4Xpp/78e6i7/9a+OZC0z6/CtLALpuQQqhdE8/yQYOzVdlw2UUVwz9ueE3zKe7jQ8DVdRHBa4beJ2z2b8inwOY3lzP3qS/ZOjMOxoBvi+7K6pFBsSy4mYUQ4xuQu2BLCsIrbjok7QyVFoF3YTV7go/FXExF+NWGhbpiaA3fafshgGRMKlysADA+/Taqe3A65jcig4bz79kds37KJ2SMvIW2sH43KJ+d+fcga60mauHnkeC9Sx3uyZ1wcS0b24K3Bgbzzj0huDPNl3iOXsGd8IAee78zmsd0Z4OfBtkkxbJ+gJrb7PcRGPUZM9GhiVY/h49fnV/AJAFXRo1CrnkCtfgRfr0hOFh6T9cqWoJBJnK2I/3zwJqvGxfF0Pw8MSRdTOS8OXVJP1kzpiTY+lCcu60hFUn/MC8OxCvgWxnBtRHtcdj1OmwZHg8IqJZqWXqvFYxccPuVGkA3r8JQR83tau/jAtkrqTcXUVBcR3c6Dw5O9sYk4KknFokf80C0KIf5hPxIeC6UyeRD6RaEyK9MlxGIWX2lMVhHeUU1E8K9jvKbgCYXza99HJiACNsUimmyHhw3H1yeazOxUpr88gWXPXkKeiP/Gt5MLD5qCqGxnTRDZsaecGxarn8VtNh4Jb8uiMeG8fcdFbBzXnUMTvMgd60m4d5dGNyvgi4l+nM4BVxGjerTxuKKAShsTI1zxw4QGXyVnaRyK2iittZzaGi2Xd1WzZ1Io+2eIewJGYU2KZPmTPhgWxKJLiubBbj7YFnaX/WpZGE7l4m7cOeAyHJZi6s/VzSqv2UJ7Nhfb0vnzdrvi5zLlzYH+APhqbWJRZSEHftnC0scvonpOVyxLVOgWdcOSKO4OGoWYrtIldeXzB1Qc/+afmOUEfwDGhWFE+voTHvbP34z5BHxe3t0RSYcALzTcDaDSymOhtxIRdhM7d+0iI+swD414gKWPXyJdbUsJiAJg0/bQxM7sn6Lm8Hg/pvUV0PmSMcmX4d19UcU82AiZUDcBnZ9ff2JUjzUeV6BT2ljVo/gH3kRMzL047SapUHUNF18oVE1dJX06tuXQhE7Y4rtjSA7DkhxOTaIaQ7KKDc/F8NUdHlgSA+TqHDEtqF/YlSfvu0OWq9xTlmeY2WgBshaVr1pzYWM+q6YQ8SNxync55Ieo1sjpojPOEZ5hCky6DVGJt1TQuZ0Hac97YktSywRDTEMJE0G76DibWCm8qBdP9/ahYnEA1oXBhPuGEhQ0GP9Og4gIH0J46C1ENLhhAZ0AKzx0ON4+3QgPGU5Y6F2NoCrnFSUUbUBAV9IzUjial8dH//43Tw8MlPftE0lI+gRx059myYjYn+BJ+nhvXu/ny9FnPfn2gQhSJwSSN9GTd24Mpmu3u9xuVLpcAd5oPD17ExNzn3TBCmxKG6t+jFj1KDp2vAF11KOoIkfy3beLqK+ulMvPBAR2awUPd+9I5jPtMMyLcC/zSoimJikEfXw3Mj8MR5fUB2NyLKakICxJ4egWBzH0qt447FVg0TT+rzNBda7HW1K2sx07b+WzaAoRPxKs/ByVWM8nIKozlpx9keIZILRXa6gqOcr8kd0xzY5shE/JHMWdA8QXeMS+Jqkn62dcimlJCD2CL0UdM5o41QiZwXYOuI6o8DsaEwoBVFTIcIJDrqRtOzWh4TcSFuaO91qCLyz4KlJT08nOSiMzO4v01HSCvDzYOC6G9HEdfwVf1gQfsif58f5VvmSNa8+WJ7pwaIKK3EntGXFpMEERVxKrHk2MaqSM72JjRtLOsxexcSNRRwn324LyRT9Kx443ERMtkpPHiFOPJqRzj9PgEy5476Qoyma5l3wZEsPYNL0/Xz4Uiv67y+UCCFuiCE8isSSHSPiGx3pSJ+4BbStuBE9R0nMFraXHnQ20ls6fN3ziR2DkD/c1/NKQ8pMIbhn/9UrXc4kFxYJSV3UlQb7epExqi1ncMeAMq0cEhK/fEIw+MYQeoTcQHT0Gtepxt0U/SoeO19JV/QiqiPukq5U1vtA7ZEmlc2BfPL0jiAi/WSqkyHwV5ROZr5gN+dftI8nKyiArK5v09FTS0g7x6qvvoPby4McJ3Umd4E+WmA0Z50PqpABmXdVWzgvPH+bL3rExJIzswY19++N01dOhfTepbhKy6Efx9ByIWvVAy9A11P1iYu5Bpbr/lDtWjUIddiO1NWU45bSchvITWaRO7Ih9QRcsiVHMuDYYzZJeMhYWtUe31xCDWPSjii3T+uGqseC0aeWMUEsQne+xluA627Hzhs9QfhRjxTH5c5jKj/g1dcHnAlvzx4jqvHC9FeX5/Dy+N8ff8pWjVlG+pq0xPoy9L8dSvLA/nQNjiI0Zg1o9SlqsgDDyCaIjbycqYjhxqodQR95PZMT9hIbcIYvLEWG30tG/B538+8iyS1To7YjkQ8SAEWHD6eLfj7y8bLIyc8nISCMzM52szDRycjJZuXY17T3a09WrDYOC2jH8ovbcHtOO7l4edPBow5VXXEeN0y6X0zup5+pBN6OOHok6+lF8vAe4yyuqUcQIoBpga9qKUouf72D3cxQYVaPopr4fnaFIwuMw6xh243VkTOqAPSGI94cFYprrXuYlVE7AJ/pLgCesbFEsPy+ch6taQ51NLC5wF65F3PhH2NlAa+n8ecOnLzuCrjQPk+YYVm0B4ndtawzuewsL9atrWB37e0aSgFE8fsJTTxHati2Zkzqgn90Q+yUrRWYxe+Deti1SM7q/Hy6XU8Z64mKKLFK4MmHiIqrVDxId9ZC80NL1RY8iLuYxoiIfcsd+YUPx9OpKePj17npfuJj5GE5kxBD27t0t1S9bKGBmOjkZmWSnZ5OVkU12ptvSD+Vw9WX9+TFCxcrwYO7y9sZV58CFC+UvK/NwA3yjiI0cQ6z6Tjw9LyEm+l5i1A8TE/W0fH8KjKqoR1CrRHLyeBM43W5bFd1TTvLb9BV89dkn7H8uAPvCcJLHBFEdHyGX6bsHqYiRRT9FYl4UwL09Oshrgl0nYauv1fJHWktwne3YecOnKc6gqiQTfXk2xso8zFUnsOkEgCXuLxI1+X7AuQIo4BO1P4927YgIvoGJg8LInOjBiff8sSVGy1XAp27QE8WBl/1ZumixhO/jWd/QNeZB4iR4pxRFZpWyrOGeQXDvi2BeBP2jiFU/TCf/3nh6RhIZ9i9CxGxHyL9kTBjQIZbU1BQyM9Ia4cuR8GWSlZFOVkYuOUezGN85iL2hfmRE+ZOjCubWzkE4qFfYw+l0ESfju8eIjRopLS5yDF1V9+PXYQABgaLcckoJoyIflsmGKEQriihddtQoAgL6YLdoWP5DEkezs9k4PgbT/EjyPh8oV1yLGZbT4EsIp2rBVVTrNdRbq/5Q4JrCezbQWjp/3vCVFRyisiidqpJs9OWHMVYewVx1rAHAhkRE/HasWFvXZD3Zb4HoEp1j19PBL5awkH9w590juL1be3Y9F0LW2LbkTPXl8DRfMqd4sXtiKH06tKPOVU99vTBo79NNXjTlgjVvJXgN6hgX+zA+Pr3x978MsR0joW0I/KMfQS0s8jaqNAYK8o9zODebvNzDHM7JJScrl7zsHApLirjn5iHkqoI5HB1MdnQgR1Qh7A8LIWPL1gb8XNTV2VGr70Al/meUKCA/RqxQ4Kin6aZ6Gi+vU9Ns0ZHiMacGT/PtGNUDGKsquX3oEDLTMukV4k32ix6c/PRiecuOpqGJdLsLA7k+Ngq7SQNWzd8DvpITByk/mUplUSaa4ix0ZbkYKvIwa9wKWK0vbizDyOVP5zBt47LqWPFDAqrwm4gMu4kfflhDXk4GLz39DJHebbg9piN3dutAtEcbHn/4UeqdLlz1NMBXT3paNnGqu9zutoUL2KnTzcTG3U2bNmpiVLfStSHLFArTXBHdLvBRnnr6ZcBFfb34Rlo9LpdLmtyur2dMWGey1GHkRQeQqw7kcHQguRGdGdbOU36hqF4+10FgYH+iox+i16AVdOufzIG0LF574wOiwm/Dz6+fLKcI0KKjHiBGPeLMAKpH4e0RQXrKAZmN5x5I4cenLqHo3S7ylm7mpHAsyRFYk93VguIlg3HUmKC2Amy6vwd8hUf3UZqfglDA8oJMqopzEXGgooAiDhQxoJKEiETCeRYFFCl/QMdOqEJuQR11CwcPpJKZcUh2cn19HS6cOF0OnDKeEkAoquduBRht24YTpxaZ76kVIzHRbpfWtq2aHt2EsjxOnGrsmS+wEuRHP0bH9gNxUUe9cKTNXm/VhvXc5teZvOhAsmMCOKzqTHaMP6kx/jzcOYgePXqgeN9Leg9GpX6QPpctpe/ATcT3vJrVfa6mV8hNdOowsLEME6MaQVzcfb96b8rgUKtG8MiDT5CTkSqtoPA4KZs3seipS8l41pvcaX4UvBbA8Ze9WTUuhmfuuQNntZ762irqa/4m8B3L3kH+4d0UHdtPyfFUKk5mSQCFGxYKaKo8hqUqn2p9UWMcKH4wWLrgM0BYa62gvV8oajHTEHIjR/KOk5V5SMZb4guxysUXF1TZbto6HHWo1dejVt+DusmsgbhwsTEP4NEunJhI4VoFmC3U1pqppTsOuxNXvfgy+K9hv+qKy9l3cD+pcRESPAmfWgDYhUcio6l1OigpKcXlquey/v+gq/oxincf5FB8Euvf+ZCfZ7yJOvQGgoKuk/CJLF3U9aJVQ88IX8eOAzmcnUFuZgaZaYca1d/hcHLdxV25p08HHu4XyMRR9+N0OFi9ch0uuxZnbRXO2r8JfHkZ21AAdKvgQSoKU6UL1pbmuAHUuAG06cXPeLpnQ+SXy4UKtjB1U1aQR0ToQKLChtO580DS0zPJzkolMz0D4V+bgtbSdkbGEaIi75UFXDF1paiFXEESfBOq6CFERQ+ThV5R8G0eTzXfl89XjWLBgiTp3pUMQry20+mkrq6Wunonr4YEkxfdWQIoVPBIlD/P3nA9Dmc9w24ZjsvhYsyYJ4lTjaSrR2e6eQQQ5RlLlFdXuobfSWCQWN0ygljVGLnYoL3fZY3vXXlPciFCzAN4+YTJUORwlugbd78o70u0Is1xIcIDhwwPXnphKo7ayv+au1WSjpYSirMdO++EIytlI4fTt3I06xepgIobLj+ZLgEUCqgrO4yp8jiWqgL527xiNkTC11ISUlNFnx6XEBV2M2ERw/H17sH27b+QmZFCVmaW7NWWgGt6zL/TZajUIwkNv5boaDFtJVaPuFeQtPO8RC5latMmhhj1I/K4cmHP1CrP9/IKp6ysrPEai9e8cfDNuOrrpUO++uKeZKv8yRWqpwohT+XP1zNfERRQV+skOyub5StWoI66j27qJ4iOHU20mPFQP44q+lGCg26R8InXi44YhbdXv8b3rrw3cc7TuxfhYdex55d9ZKenUVNtPW1QNoVP6Zc7h99NXU3F3wu+jH3ryD54CkChggLAohMHKCt0JyJVJTnuOFAUozUnsOpOIn4kurbhTvYCRDmrIYrLteV4tfUnMngo4ZG308ZDTWCX7qSlZ5KZmSkvvNKholX+xLb4QZZXXn6XOJFNCtelfpgO7S91ly9kUvEY7TsORB35JCr17ahVQ+XcqnJhz9YGd7leDoTq6lrpfgVVS5Z8LzNskfAcPVHI0m5x5Knak6sKIDcmkB3Ll8rz9S47s7/8msLCIsKChshkSNYfm8SVMdH3yJKPKJKroh8nWCqhe4DIxEcsr4q+gy5dBhIeMozI0AHkZGXjqhP3hfltj3D5ALEe8I+t6Slq17Q9m8q1dP68le/gjhWk7VlD1sGN5KRu5kjmdk7k7uLk0b0SwNKCVCoKM6gqzkZbchh9mShI52PVFVJtKD59TthcSq21BH+/rkSFDCMi/Hbad+xNpJiF6NidtLSshphLxF1uE1Lo7ngX99/zDLFRDxHboHKx0Y/jLZapq0YSK2p5qpFERgrg3LW+tm1j3fBFP4paXNhmsV7z/bjoB9BqdXzzzTc46lxYLOYmgwFsNTVc6+VJRlw0v8TFMDckEKtO36BKddS7oN7lxMe7q3wtoWLKa4j3FKt+QE63udfwjUEVfRdxsfcTEyXqkSPoEjgUDw8VYcHDCQ++g/DQ2wnqcj3HjhdJ9VX6ROkP6XLrXaxYvhE/bxV1Nf+9+p4CYEtwne3YecO3Z8tPpOxcKQHM3L/+NAALjuxxA3jyEBWFaYiCtK4sC325uxQj5oRFKUZxw6ItKcomPORqqXxR4UMIDR4k51sjQocREngtjz/+EjW1IuMV5ds6GcTv251OgN9ldBPgNVUS1WNES9juoKtqNFERtxHbMJcqLnxU1FAiIm+T011SWc4Gn+pRLut/E06nneefm8y9997bWG4RF1xk2fv3HuAf3t5sjQjilxg1doddJgOKQouEaciQO1FFNlu7pxLu9xHU6jvlEnq30j2MKno46qj7iY64h7DQwYSHDSY8+E5CQ8WqnDsb5oofwd9/ADt+SZHRnszIcWA0WgnscgmqyPvw8uwpl2G5/uAZDQU60YrpubOB1tL584bvl/XfIgA88MtyUnevJuPAerIPbUIkIjIOzNtD4bH9lBakSABlQbo4BzknXHkCk4gDde5MuMZYwi3//CdhYqVx6K0E+PchKvxGIkOHExl6K5Ghw4iJGEls5EPEqe8lJvouunUbSYx6JHHqJ4iJEnWxU2oi1KxrzEN07jyAuOjHaO/Xj67RIpN0x4BiHrhtuzjpAn9rIaeiTnKu1aefnElxOeupqKiQCYfi8gR8qZkZ9PTwJDvKn+zIjrww+jHqnadn6D8tXYdKvFcxipmvvwAAAQFJREFUz6sArx4j1/WFhg6Wq5blrIZqJH5+vegW+yCB/jfR1jOCsJBhhIWI75sMJzzsLrlKRiVKStGj6BbzGD26jUQVdRdxMaJ/HnHXOlViFXQMjppK/hvwKUnjBf+x55ZIbj024rwU4H+1385b+f5XO6z1c/9xA6wVvqN/XGe2gvn7+rIVvlb4/rRQoRW+Vvha4Wt1Wb/PZf0d+qtV+VqVr1X5/g4jufUz/D71blW+VuVrVb5W1fh9qvF36K9W5WtVvlbl+zuM5NbP8PvUu1X5WpWvVflaVeP3qcbfob9ala9V+VqV7+8wkls/w+9T71bla1W+VuVrVY3fpxp/h/76f/Y2KCJ3InhEAAAAAElFTkSuQmCC;" vertex="1" parent="1">
          <mxGeometry x="700" y="80" width="159" height="99" as="geometry" />
        </mxCell>
        <mxCell id="pEm7_C_hrB5tEDnLU3EK-23" value="" style="endArrow=classic;html=1;rounded=0;" edge="1" parent="1">
          <mxGeometry width="50" height="50" relative="1" as="geometry">
            <mxPoint x="330" y="490" as="sourcePoint" />
            <mxPoint x="300" y="650" as="targetPoint" />
            <Array as="points">
              <mxPoint x="240" y="580" />
            </Array>
          </mxGeometry>
        </mxCell>
      </root>
    </mxGraphModel>
  </diagram>
</mxfile>
